<svg width="18" height="24" viewBox="0 0 18 24" fill="none" xmlns="http://www.w3.org/2000/svg">
<path d="M8.99989 0.705872C5.47047 0.705872 2.64694 3.5294 2.64694 7.05881V9.88234C1.44694 9.88234 0.529297 10.8 0.529297 12V21.1765C0.529297 22.3765 1.44694 23.2941 2.64694 23.2941H15.3528C16.5528 23.2941 17.4705 22.3765 17.4705 21.1765V12C17.4705 10.8 16.5528 9.88234 15.3528 9.88234V7.05881C15.3528 3.5294 12.5293 0.705872 8.99989 0.705872ZM16.0587 12V21.1765C16.0587 21.6 15.7764 21.8823 15.3528 21.8823H2.64694C2.22341 21.8823 1.94106 21.6 1.94106 21.1765V12C1.94106 11.5765 2.22341 11.2941 2.64694 11.2941H3.35283H14.6469H15.3528C15.7764 11.2941 16.0587 11.5765 16.0587 12ZM4.05871 9.88234V7.05881C4.05871 4.30587 6.24694 2.11764 8.99989 2.11764C11.7528 2.11764 13.9411 4.30587 13.9411 7.05881V9.88234H4.05871Z" fill="#333333"/>
</svg>
